<?xml version="1.0" standalone="no"?>
<!DOCTYPE svg PUBLIC "-//W3C//DTD SVG 20010904//EN"
 "http://www.w3.org/TR/2001/REC-SVG-20010904/DTD/svg10.dtd">
<svg version="1.0" xmlns="http://www.w3.org/2000/svg"
 width="127.000000pt" height="127.000000pt" viewBox="0 0 127.000000 127.000000"
 preserveAspectRatio="xMidYMid meet">
<metadata>
Created by potrace 1.14, written by Peter Selinger 2001-2017
</metadata>
<g transform="translate(0.000000,127.000000) scale(0.100000,-0.100000)"
fill="#000000" stroke="none">
<path d="M190 1159 c-86 -26 -148 -98 -175 -199 -14 -53 -18 -160 -8 -176 17
-24 45 -31 79 -21 37 11 51 39 53 105 8 211 206 217 421 15 59 -56 81 -55 145
4 112 103 214 150 301 140 76 -8 110 -59 119 -182 3 -36 10 -54 25 -67 27 -22
83 -24 99 -4 31 37 4 215 -42 281 -55 79 -117 110 -222 109 -96 0 -165 -23
-263 -87 -37 -24 -75 -47 -84 -50 -11 -4 -41 11 -84 40 -37 25 -94 57 -128 70
-68 28 -181 39 -236 22z"/>
<path d="M113 628 c-60 -16 -62 -48 -8 -143 136 -238 365 -398 549 -382 194
16 420 199 522 422 29 63 23 86 -25 103 -46 16 -68 4 -103 -57 -50 -88 -68
-111 -144 -188 -43 -43 -96 -84 -135 -104 -56 -29 -74 -33 -139 -34 -67 0 -82
4 -140 35 -80 44 -203 164 -249 245 -56 98 -59 102 -78 107 -10 2 -32 1 -50
-4z"/>
</g>
</svg>
