<svg width="91" height="32" viewBox="0 0 91 32" fill="none" xmlns="http://www.w3.org/2000/svg">
<path d="M49.9082 13.9486C49.7967 13.9486 49.7019 13.9103 49.6239 13.8337C49.5459 13.7572 49.5068 13.6642 49.5068 13.5548V2.85527C49.5068 2.73493 49.5459 2.64194 49.6239 2.5763C49.7019 2.49972 49.7967 2.46143 49.9082 2.46143H51.4635C51.5861 2.46143 51.6809 2.49972 51.7478 2.5763C51.8258 2.64194 51.8648 2.73493 51.8648 2.85527V11.9958H57.1661C57.2888 11.9958 57.3891 12.0341 57.4671 12.1107C57.5452 12.1872 57.5842 12.2857 57.5842 12.406V13.5548C57.5842 13.6751 57.5452 13.7736 57.4671 13.8502C57.3891 13.9158 57.2888 13.9486 57.1661 13.9486H49.9082Z" fill="#222222"/>
<path fill-rule="evenodd" clip-rule="evenodd" d="M62.7227 14.1127C61.4183 14.1127 60.4093 13.7845 59.6958 13.1281C58.9823 12.4607 58.5976 11.5527 58.5419 10.404L58.5252 9.68194L58.5419 8.95989C58.5976 7.82211 58.9878 6.91955 59.7125 6.2522C60.4372 5.58485 61.4406 5.25117 62.7227 5.25117C64.0048 5.25117 65.0082 5.58485 65.7329 6.2522C66.4576 6.91955 66.8478 7.82211 66.9036 8.95989C66.9147 9.09117 66.9203 9.33186 66.9203 9.68194C66.9203 10.032 66.9147 10.2727 66.9036 10.404C66.8478 11.5527 66.4632 12.4607 65.7497 13.1281C65.0361 13.7845 64.0271 14.1127 62.7227 14.1127ZM62.7227 12.4881C63.3136 12.4881 63.7707 12.3076 64.094 11.9466C64.4174 11.5746 64.5957 11.0331 64.6292 10.3219C64.6403 10.2125 64.6459 9.99921 64.6459 9.68194C64.6459 9.36468 64.6403 9.15134 64.6292 9.04194C64.5957 8.33083 64.4174 7.79476 64.094 7.43374C63.7707 7.06177 63.3136 6.87579 62.7227 6.87579C62.1318 6.87579 61.6747 7.06177 61.3514 7.43374C61.0281 7.79476 60.8497 8.33083 60.8163 9.04194L60.7995 9.68194L60.8163 10.3219C60.8497 11.0331 61.0281 11.5746 61.3514 11.9466C61.6747 12.3076 62.1318 12.4881 62.7227 12.4881Z" fill="#222222"/>
<path d="M70.7757 13.8502C70.8649 13.9158 70.9931 13.9486 71.1603 13.9486H72.3978C72.5651 13.9486 72.6933 13.9158 72.7825 13.8502C72.8717 13.7736 72.9441 13.6696 72.9999 13.5384L76.1439 5.92399C76.155 5.89117 76.1606 5.84194 76.1606 5.7763C76.1606 5.67784 76.1216 5.59579 76.0435 5.53015C75.9766 5.45356 75.8986 5.41527 75.8094 5.41527H74.4381C74.3266 5.41527 74.2318 5.44809 74.1538 5.51374C74.0869 5.57938 74.0367 5.65049 74.0033 5.72707L71.7791 11.4871L69.5549 5.72707C69.4768 5.51921 69.3319 5.41527 69.1201 5.41527H67.7655C67.6651 5.41527 67.5759 5.45356 67.4979 5.53015C67.431 5.59579 67.3976 5.67784 67.3976 5.7763L67.431 5.92399L70.5583 13.5384C70.614 13.6696 70.6865 13.7736 70.7757 13.8502Z" fill="#222222"/>
<path fill-rule="evenodd" clip-rule="evenodd" d="M80.6337 14.1127C79.3961 14.1127 78.4094 13.7626 77.6736 13.0625C76.9489 12.3513 76.5643 11.3558 76.5197 10.0758L76.503 9.66553L76.5197 9.25528C76.5755 8.0081 76.9657 7.02895 77.6903 6.31784C78.4262 5.60673 79.4073 5.25117 80.6337 5.25117C81.9492 5.25117 82.9638 5.64502 83.6773 6.43271C84.402 7.2204 84.7643 8.27066 84.7643 9.58348V9.9281C84.7643 10.0375 84.7253 10.1305 84.6473 10.2071C84.5692 10.2837 84.4689 10.3219 84.3462 10.3219H78.7941V10.4532C78.8164 11.0549 78.9836 11.5637 79.2958 11.9794C79.6191 12.3842 80.0595 12.5866 80.6169 12.5866C81.2747 12.5866 81.8043 12.3349 82.2056 11.8317C82.306 11.7113 82.384 11.6348 82.4398 11.6019C82.5067 11.5691 82.6014 11.5527 82.7241 11.5527H84.1623C84.2626 11.5527 84.3462 11.5855 84.4131 11.6512C84.4912 11.7059 84.5302 11.777 84.5302 11.8645C84.5302 12.1271 84.3685 12.4389 84.0452 12.7999C83.733 13.15 83.2815 13.4563 82.6906 13.7189C82.0997 13.9814 81.4141 14.1127 80.6337 14.1127ZM82.4899 8.94348V8.89425C82.4899 8.24878 82.3227 7.72912 81.9882 7.33528C81.6649 6.94143 81.2134 6.74451 80.6337 6.74451C80.0539 6.74451 79.6024 6.94143 79.2791 7.33528C78.9557 7.72912 78.7941 8.24878 78.7941 8.89425V8.94348H82.4899Z" fill="#222222"/>
<path d="M49.6239 28.603C49.7019 28.6796 49.7967 28.7179 49.9082 28.7179H51.43C51.5527 28.7179 51.6474 28.6796 51.7143 28.603C51.7924 28.5264 51.8314 28.4334 51.8314 28.324V23.9261H56.7648V28.324C56.7648 28.4334 56.8038 28.5264 56.8818 28.603C56.9599 28.6796 57.0546 28.7179 57.1661 28.7179H58.6712C58.7939 28.7179 58.8942 28.685 58.9723 28.6194C59.0503 28.5428 59.0893 28.4443 59.0893 28.324V17.6409C59.0893 17.5206 59.0503 17.4221 58.9723 17.3455C58.8942 17.269 58.7939 17.2307 58.6712 17.2307H57.1661C57.0435 17.2307 56.9432 17.269 56.8651 17.3455C56.7982 17.4221 56.7648 17.5206 56.7648 17.6409V21.8748H51.8314V17.6409C51.8314 17.5206 51.7924 17.4221 51.7143 17.3455C51.6474 17.269 51.5527 17.2307 51.43 17.2307H49.9082C49.7856 17.2307 49.6852 17.269 49.6072 17.3455C49.5403 17.4221 49.5068 17.5206 49.5068 17.6409V28.324C49.5068 28.4334 49.5459 28.5264 49.6239 28.603Z" fill="#222222"/>
<path fill-rule="evenodd" clip-rule="evenodd" d="M64.6117 28.882C63.3741 28.882 62.3875 28.5319 61.6516 27.8317C60.9269 27.1206 60.5423 26.125 60.4977 24.845L60.481 24.4348L60.4977 24.0245C60.5535 22.7773 60.9437 21.7982 61.6684 21.0871C62.4042 20.376 63.3853 20.0204 64.6117 20.0204C65.9272 20.0204 66.9418 20.4143 67.6553 21.2019C68.38 21.9896 68.7423 23.0399 68.7423 24.3527V24.6973C68.7423 24.8067 68.7033 24.8997 68.6253 24.9763C68.5472 25.0529 68.4469 25.0912 68.3242 25.0912H62.7721V25.2225C62.7944 25.8242 62.9616 26.3329 63.2738 26.7486C63.5971 27.1534 64.0375 27.3558 64.5949 27.3558C65.2527 27.3558 65.7823 27.1042 66.1837 26.6009C66.284 26.4806 66.362 26.404 66.4178 26.3712C66.4847 26.3384 66.5794 26.322 66.7021 26.322H68.1403C68.2406 26.322 68.3242 26.3548 68.3911 26.4204C68.4692 26.4751 68.5082 26.5462 68.5082 26.6337C68.5082 26.8963 68.3465 27.2081 68.0232 27.5691C67.7111 27.9192 67.2595 28.2255 66.6686 28.4881C66.0777 28.7507 65.3921 28.882 64.6117 28.882ZM66.468 23.7127V23.6635C66.468 23.018 66.3007 22.4984 65.9663 22.1045C65.6429 21.7107 65.1914 21.5137 64.6117 21.5137C64.0319 21.5137 63.5804 21.7107 63.2571 22.1045C62.9338 22.4984 62.7721 23.018 62.7721 23.6635V23.7127H66.468Z" fill="#222222"/>
<path fill-rule="evenodd" clip-rule="evenodd" d="M71.4707 28.5537C71.9501 28.7726 72.4741 28.882 73.0427 28.882C73.7116 28.882 74.2691 28.7726 74.715 28.5537C75.1722 28.324 75.5233 28.0341 75.7686 27.684V28.324C75.7686 28.4334 75.8076 28.5264 75.8857 28.603C75.9637 28.6796 76.0585 28.7179 76.17 28.7179H77.5246C77.6472 28.7179 77.742 28.6796 77.8089 28.603C77.8869 28.5264 77.9259 28.4334 77.9259 28.324V23.1712C77.9259 22.2303 77.6249 21.47 77.0229 20.8902C76.4208 20.3103 75.462 20.0204 74.1465 20.0204C73.3549 20.0204 72.6859 20.1462 72.1396 20.3978C71.5934 20.6495 71.1864 20.9503 70.9188 21.3004C70.6624 21.6505 70.5286 21.9623 70.5175 22.2358C70.5175 22.3452 70.5509 22.4327 70.6178 22.4984C70.6959 22.564 70.7851 22.5968 70.8854 22.5968H72.1731C72.2957 22.5968 72.3794 22.5312 72.4239 22.3999C72.4685 22.3561 72.5577 22.2631 72.6915 22.1209C72.8253 21.9896 73.0037 21.8584 73.2267 21.7271C73.4608 21.5849 73.7618 21.5137 74.1297 21.5137C74.676 21.5137 75.0718 21.6341 75.3171 21.8748C75.5624 22.1155 75.685 22.4765 75.685 22.9578V23.3025L73.3939 23.6307C72.3236 23.7948 71.4819 24.1066 70.8687 24.5661C70.2555 25.0255 69.9489 25.6273 69.9489 26.3712C69.9489 26.8307 70.0827 27.2519 70.3503 27.6348C70.629 28.0177 71.0025 28.324 71.4707 28.5537ZM75.1164 26.7322C74.7262 27.1261 74.2245 27.323 73.6113 27.323C73.1876 27.323 72.8253 27.2245 72.5243 27.0276C72.2233 26.8307 72.0728 26.5572 72.0728 26.2071C72.0728 25.8898 72.2344 25.6218 72.5577 25.403C72.8922 25.1842 73.3828 25.0255 74.0294 24.9271L75.7017 24.6645V25.0091C75.7017 25.764 75.5066 26.3384 75.1164 26.7322Z" fill="#222222"/>
<path d="M79.8218 28.7179C79.7104 28.7179 79.6156 28.6796 79.5375 28.603C79.4595 28.5264 79.4205 28.4334 79.4205 28.324V20.5948C79.4205 20.4854 79.4595 20.3924 79.5375 20.3158C79.6156 20.2283 79.7104 20.1845 79.8218 20.1845H81.1764C81.2991 20.1845 81.3994 20.2228 81.4775 20.2994C81.5555 20.376 81.5945 20.4744 81.5945 20.5948V21.2676C81.8621 20.9175 82.1966 20.6495 82.5979 20.4635C83.0104 20.2775 83.4787 20.1845 84.0027 20.1845H84.6883C84.811 20.1845 84.9057 20.2228 84.9726 20.2994C85.0507 20.365 85.0897 20.458 85.0897 20.5784V21.7599C85.0897 21.8693 85.0507 21.9623 84.9726 22.0389C84.9057 22.1155 84.811 22.1537 84.6883 22.1537H83.3839C82.8599 22.1537 82.4474 22.3014 82.1464 22.5968C81.8454 22.8922 81.6949 23.297 81.6949 23.8112V28.324C81.6949 28.4334 81.6558 28.5264 81.5778 28.603C81.4998 28.6796 81.3994 28.7179 81.2768 28.7179H79.8218Z" fill="#222222"/>
<path d="M86.9528 27.9466C87.4656 28.4608 88.2293 28.7179 89.2439 28.7179H90.5984C90.7211 28.7179 90.8159 28.6796 90.8827 28.603C90.9608 28.5264 90.9998 28.4334 90.9998 28.324V27.3066C90.9998 27.1972 90.9608 27.1042 90.8827 27.0276C90.8047 26.951 90.7099 26.9127 90.5984 26.9127H89.4445C89.0543 26.9127 88.7756 26.7924 88.6084 26.5517C88.4411 26.311 88.3575 25.9555 88.3575 25.485V23.9336C88.3575 23.6574 88.1337 23.4336 87.8575 23.4336H86.7002C86.4241 23.4336 86.2002 23.6574 86.2002 23.9336V25.6491C86.2002 26.6556 86.4511 27.4214 86.9528 27.9466Z" fill="#222222"/>
<path d="M86.7002 22.1505C86.4241 22.1505 86.2002 21.9267 86.2002 21.6505V17.4604C86.2002 17.3401 86.2392 17.2471 86.3173 17.1814C86.3953 17.1049 86.4901 17.0666 86.6016 17.0666H87.9562C88.0788 17.0666 88.1736 17.1049 88.2405 17.1814C88.3185 17.2471 88.3575 17.3401 88.3575 17.4604V20.1845H90.4479C90.5706 20.1845 90.6653 20.2228 90.7322 20.2994C90.8103 20.365 90.8493 20.458 90.8493 20.5784V21.7435C90.8493 21.8638 90.8103 21.9623 90.7322 22.0389C90.6542 22.1155 90.5594 22.1537 90.4479 22.1537H89.3538V22.1505H86.7002Z" fill="#222222"/>
<path d="M2.90055 12.0965C3.72345 11.8802 4.23598 11.0913 4.19541 10.2563C4.17929 9.92446 4.17665 9.60199 4.18705 9.29003C4.27994 6.50397 5.32572 5.11167 6.3925 4.54419C8.11776 3.62643 11.986 3.95804 16.3954 7.95384L18.0973 9.49609C18.7379 10.0767 19.7257 10.0767 20.3664 9.49609L22.0683 7.95384C26.4777 3.95804 30.3459 3.62643 32.0712 4.54419C33.138 5.11167 34.1838 6.50397 34.2766 9.29003C34.287 9.60207 34.2844 9.92463 34.2683 10.2565C34.2277 11.0916 34.7402 11.8805 35.5631 12.0968L36.412 12.32C37.3602 12.5693 38.3307 11.9663 38.4085 11.0061C38.7753 6.48052 37.3118 2.66533 34.0637 0.937496C30.2688 -1.08119 25.0138 0.268413 20.3993 3.94676C19.7223 4.48633 18.7413 4.48633 18.0644 3.94676C13.4499 0.268414 8.19485 -1.08119 4.4 0.937496C1.152 2.66529 -0.311586 6.48034 0.0551605 11.0058C0.132978 11.966 1.10349 12.569 2.05168 12.3197L2.90055 12.0965Z" fill="url(#paint0_linear_128:1591)"/>
<path d="M17.9161 27.746L17.9884 27.7642C18.338 27.8518 18.7383 27.9013 19.1934 27.8972L19.2317 27.8969L19.27 27.8972C19.7251 27.9013 20.1254 27.8518 20.475 27.7642L20.5473 27.746L20.6203 27.7304C23.8899 27.0314 28.12 24.124 31.1838 19.2346C31.6492 18.4917 32.0582 17.7496 32.4134 17.0151C32.7779 16.2614 33.6278 15.8353 34.4491 16.0512L35.2913 16.2727C36.2439 16.5231 36.7734 17.5261 36.3644 18.4067C35.9017 19.4029 35.3621 20.399 34.7452 21.3834C31.2519 26.9583 26.167 30.7433 21.5104 31.7389C20.782 31.9216 20.0188 32.0067 19.2317 31.9996C18.4446 32.0067 17.6814 31.9216 16.9531 31.7389C12.2964 30.7433 7.21151 26.9583 3.71819 21.3834C3.10128 20.3989 2.56165 19.4027 2.09892 18.4065C1.68992 17.5259 2.21942 16.5229 3.17201 16.2724L4.01419 16.051C4.83545 15.835 5.68537 16.2612 6.04988 17.0149C6.40509 17.7494 6.81411 18.4917 7.27962 19.2346C10.3434 24.124 14.5735 27.0314 17.8431 27.7304L17.9161 27.746Z" fill="url(#paint1_linear_128:1591)"/>
<defs>
<linearGradient id="paint0_linear_128:1591" x1="3.21856" y1="-2.21955e-07" x2="25.5407" y2="32.3968" gradientUnits="userSpaceOnUse">
<stop stop-color="#F82148"/>
<stop offset="1" stop-color="#FF6ACC"/>
</linearGradient>
<linearGradient id="paint1_linear_128:1591" x1="3.21856" y1="-2.21955e-07" x2="25.5407" y2="32.3968" gradientUnits="userSpaceOnUse">
<stop stop-color="#F82148"/>
<stop offset="1" stop-color="#FF6ACC"/>
</linearGradient>
</defs>
</svg>
