<svg width="56" height="30" viewBox="0 0 56 30" fill="none" xmlns="http://www.w3.org/2000/svg">
<path d="M34.7371 16.81C33.1244 16.81 31.6757 16.4547 30.3911 15.744C29.1337 15.006 28.1497 14.0083 27.4391 12.751C26.7557 11.4663 26.4141 10.0177 26.4141 8.405C26.4141 6.79233 26.7557 5.35733 27.4391 4.1C28.1497 2.81533 29.1337 1.81767 30.3911 1.107C31.6757 0.369 33.1244 0 34.7371 0C36.3497 0 37.7847 0.369 39.0421 1.107C40.3267 1.81767 41.3107 2.81533 41.9941 4.1C42.7047 5.35733 43.0601 6.79233 43.0601 8.405C43.0601 10.0177 42.7047 11.4663 41.9941 12.751C41.3107 14.0083 40.3267 15.006 39.0421 15.744C37.7847 16.4547 36.3497 16.81 34.7371 16.81ZM0.830078 0.41H5.25808L18.4601 22.919V0.41H22.3961V29.11H17.9681L4.76608 6.601V29.11H0.830078V0.41ZM34.7371 13.571C36.1311 13.571 37.2791 13.12 38.1811 12.218C39.1104 11.316 39.5751 10.045 39.5751 8.405C39.5751 6.765 39.1104 5.494 38.1811 4.592C37.2791 3.69 36.1311 3.239 34.7371 3.239C33.3431 3.239 32.1814 3.69 31.2521 4.592C30.3501 5.494 29.8991 6.765 29.8991 8.405C29.8991 10.045 30.3501 11.316 31.2521 12.218C32.1814 13.12 33.3431 13.571 34.7371 13.571ZM27.4391 19.475H42.0761V22.755H27.4391V19.475Z" fill="#9B9B9B"/>
<path d="M51.2457 5.904C50.5897 6.478 49.8517 6.87433 49.0317 7.093C48.239 7.28433 47.1457 7.38 45.7517 7.38V4.1H46.4077C47.8837 4.1 49.018 3.813 49.8107 3.239C50.6033 2.63767 51.0817 1.69467 51.2457 0.41H55.1817V29.11H51.2457V5.904Z" fill="#9B9B9B"/>
</svg>
